<?xml version="1.0" encoding="UTF-8"?>
<!DOCTYPE svg PUBLIC "-//W3C//DTD SVG 1.1//EN" "http://www.w3.org/Graphics/SVG/1.1/DTD/svg11.dtd">
<!-- Creator: CorelDRAW 2017 -->
<svg xmlns="http://www.w3.org/2000/svg" xml:space="preserve" width="7.08432in" height="4.06419in" version="1.1" style="shape-rendering:geometricPrecision; text-rendering:geometricPrecision; image-rendering:optimizeQuality; fill-rule:evenodd; clip-rule:evenodd"
viewBox="0 0 6380.69 3660.53"
 xmlns:xlink="http://www.w3.org/1999/xlink">
 <defs>
  <style type="text/css">
   <![CDATA[
    .fil0 {fill:#2B2A29}
   ]]>
  </style>
 </defs>
 <g id="Layer_x0020_1">
  <metadata id="CorelCorpID_0Corel-Layer"/>
  <path class="fil0" d="M3067.49 90.23c-22.35,-5.13 -42.1,-0.49 -60.3,3.84 -39.14,9.33 -187.8,18.39 -237.96,29.09 -15.29,3.26 -41.03,4.57 -54.6,9.04 -19.67,6.48 -0.18,3.65 -21.72,10 -15.64,4.61 -154.29,16.2 -195.45,29.07l-286.27 52.15c-17.1,3.91 -30.93,9.2 -49.66,13.08l-274.17 60.53c-18.92,4.69 -24.65,10.34 -48.17,14.56 -17.81,3.2 -38.69,7.97 -55.53,12.75l-102.67 28.69c-17.83,7.39 -35.17,9.87 -53.12,14.52 -68.43,17.74 -130.51,45.24 -199.82,62.7 -23.66,5.96 -48.36,8.77 -67.98,17.27 -35.79,15.51 -35.67,19.95 -82.61,31.94 -16.7,4.27 -30.75,15.1 -46.41,20.45l-47.37 20.06c-74.84,25.55 -236.35,105.88 -314.81,145.3 -14.04,7.06 -24.88,19.65 -39.24,27.47l-190.11 106.28c-6.75,4.42 -10.94,7.19 -17.56,11.98 -17.82,12.89 -38.67,18.67 -52.01,32.52 -0.59,0.61 -1.4,1.58 -2.01,2.18l-136.84 108.44c-7.06,5.94 -11.52,8.49 -19.16,14.74 -29.25,23.97 -61.77,46.19 -86.07,74.47l-62.09 69.13c-22.4,21.8 -39.09,48.28 -58.4,72.8l-54.58 76.42c-10.74,14.75 -14.64,30.07 -23.53,44.54 -8.1,13.17 -18.84,24.23 -24.44,38.86 -7.33,19.18 -9.09,33.58 -18.23,49.7 -10.59,18.69 -16.63,48.86 -24.79,58.82l-3.99 4.36c-11.13,13.91 -16.5,37.37 -21.86,54.06l-15.77 81.89c-6.27,75.17 -18.2,-29.92 -18.16,177.42 0,10.67 -0.43,22.29 2.67,32.16 2.56,8.17 7.08,10.45 9.61,23.82 2.16,11.36 0.79,18.6 3.56,30.59l20.66 80.64c11.18,52.49 35,92.26 52.88,141.74 9.32,25.77 6.46,24.38 21.49,46.04 29.3,42.24 19.82,50.15 68.86,112.9l202.97 240.89c12.99,11.77 26.93,16.79 38.01,29.5 6.1,7 7.83,11.79 14.73,19.2l181.91 147.7c0.96,0.78 3.73,3.05 4.67,3.86l322.18 198.29c16.25,7.79 19.7,21.45 33.92,28.23 8.21,3.91 16.11,5.11 24.77,9.48l153.18 78.73c13.93,6.23 37.75,12.35 49.26,19.35 12.87,7.83 24.91,17.91 40.28,22.21 29.12,8.15 27.24,7.46 50.65,17.89 17.2,7.66 24.67,14.34 41.87,21.06l192.96 74.33c20.25,5.4 32.3,10.23 48.82,18.28l49.42 14.73c36.23,11.87 62.78,25.23 95.46,35.35l48.52 18.54c14.2,5.51 35.75,9.52 50.85,13.44 19.63,5.1 30.22,11.99 50.65,17.02 18.5,4.55 31.02,10.65 48.45,14.88 20.37,4.94 40.62,2.67 52.58,13.67 13.53,12.45 -9.15,3.63 21.77,12.23 23.6,6.56 113.43,33.16 126.78,30.17 34.78,-5.65 87.74,16.37 117.14,22.86 18.51,4.09 44.07,3.08 59.16,8.93 13.06,5.06 -5.58,3.23 22.88,10.83l185.13 41.9c20.52,9.33 55.93,9.18 74.72,15.12 10,3.16 9.71,5.53 24.92,8.4 12.53,2.36 17.66,3.09 28.09,5.36l236.38 44.01c14.32,1.67 45.18,5.65 61.47,9.5 40.51,9.57 83.66,12.11 122.53,18.01 25.54,3.88 28.8,7.62 52.2,12.93 61.13,13.87 124,12.78 186.1,23.49 35.51,6.12 82.8,11.66 123.31,15.9 18.7,1.96 37.26,7.6 56.29,9.8 21.3,2.47 51.02,-0.17 69.58,3.64 53.45,10.99 79.99,4.79 125.84,13.65l256.76 23.27c30.36,0.02 35.79,4.91 58.95,7.26 32.53,3.29 109.23,-4.81 135.02,4.04 11.94,4.1 4.56,5.44 25.25,7.63 10.21,1.08 23.82,0.86 34.29,0.9l272.54 6.74c60.7,11.05 66.91,7.74 133.02,7.31 92.77,-0.6 185.99,0.8 278.91,0.4 274.95,-1.19 550.99,-9.68 828.26,-8.96 50.88,0.13 81.92,-7.61 130.97,-7.97 40.6,-0.3 100.45,1.45 138.93,-4.01 59.21,-8.39 133.13,-4.98 192.75,-13.26 12.3,-1.71 19.18,-1.61 31.73,-1.42 3.32,0.05 14.46,0.34 17.11,-0.04 10.66,-1.53 -2.63,1.62 7.86,-1.71 10.18,-3.22 3.94,-0.13 10.45,-5.48 -226.32,-5.96 -449.79,6.6 -677.71,-7.07l-228.22 -6.84c-38.76,0.44 -68.47,-4.39 -109.96,-4.38 -38.51,0.01 -54.69,-7.6 -105.54,-8.24 -42.73,-0.54 -69.31,-7.59 -105.5,-8.47 -39.17,-0.95 -69.6,-3.44 -110.22,-4.6 -17.78,-0.51 -68.36,-12.49 -101.3,-11.58 -23.71,0.66 -1.46,4 -20.3,2.45 -13.21,-1.08 -0.55,-2.98 -21.62,-6.76 -62.86,-11.29 -146.98,-6.26 -208.83,-22.84 -23.84,-6.39 -67.01,-3.12 -103.08,-11.32 -18.26,-4.15 -36.74,-1.63 -54.49,-5.29l-97.92 -16.15c-30.53,-2.86 -69.64,-7.02 -100.37,-13.14 -91.66,-18.26 -200.49,-29.39 -292.69,-48.98 -127.24,-27.02 -256.52,-45.13 -382.61,-75.89 -34.74,-8.47 -58.38,-7.39 -97.72,-18.97l-366.32 -92.44c-77.47,-19.52 -70.36,-7.89 -101.26,-9.36 6.63,-6.43 11,-0.92 16.18,-15.1 -8.49,-0.49 -20.15,-0.55 -28.31,-1.35l-12.63 -2.6c-48.94,-14.76 -89.78,-31.58 -141.37,-44.45l-171.7 -53.23c-16.34,-5.44 -26.61,-11.69 -39.31,-15.91 -11.57,-3.85 -32.05,-6.75 -47.21,-12.46 -60.08,-22.63 -80.91,-25.98 -130.23,-41.25l-21.84 -7.41c-9.44,-3.1 -3.99,-1.35 -9.27,-3.25 -1.29,-0.47 -8.92,-3.34 -12.96,-4.66l-82.25 -31.06c-12.88,-5.43 -31.05,-4.74 -43.86,-11.4 -48.32,-25.09 -51.15,-9.02 -73.19,-23.63 -54.14,-35.89 -122.14,-43.81 -172.81,-72.54l-80.15 -31.83c-54.61,-18.91 -176.86,-75.26 -241.72,-100.65 -12.73,-4.99 -31.43,-11.15 -38.21,-22.03 -20.74,0.3 -39.43,-10.36 -60.92,-19.78l-53.29 -27.19c-0.13,-61.38 63.73,-34.72 207.48,-35.17 68.9,-0.22 192.36,-7.07 254.46,2.26 34.78,5.23 499.84,4.13 506.18,1.68 14.11,-11.84 6.58,-485.44 6.5,-497.26 -0.54,-82.73 -0.98,-166.77 0.27,-249.45 1.11,-73.47 11.02,-176.76 1.4,-248.2 -72.1,-6.04 -816.35,-5.85 -833.04,2.03 -17.35,10.55 -27.31,47.58 -38.42,63.74l-22.33 32.41c-0.52,0.72 -1.35,1.65 -1.87,2.39l-92.35 130.31c-13.1,18.75 5.29,12.37 -19.17,15.15 -8.61,5.4 -14.39,16.41 -21.03,25.22l-2.27 20.08 -1.26 19.43c107.42,8.69 358.63,2.63 495.34,6.94 144.22,4.55 201.14,-20.71 193.4,44.87 -12.83,108.62 25.43,233.24 -20.11,247.69 -19.67,6.24 -64.53,2.51 -88.77,2.59 -42.43,0.13 -86.46,-0.73 -123.96,3.24 -67.84,7.19 -175.89,1.1 -247.91,1.16 -40.82,0.03 -81.73,-0.2 -122.55,0.12 -39.81,0.32 -89.38,6.66 -113.68,-10.51l-18.64 -11.56c-8.94,-5.36 -9.82,-8.44 -18.65,-14.51l-36.68 -25.61c-15.75,-26.16 -9.95,-12.71 -33.13,-31.52 -21.93,-17.8 -3.21,-20.47 -41.9,-21.16 -0.05,-3.04 1.19,-10.65 1.19,-10.68l-1.85 -13.99c-10.21,-2.72 -16.53,8.05 -16.57,8.08 -0.94,-26.63 3.33,-26.23 -11.27,-48.32 -46.97,-71.1 -74.11,-146.21 -80.16,-235.54 -2.67,-39.49 6.17,-116.07 20.03,-151.58 5.18,-13.27 12.41,-60.68 26.35,-85.64l38.31 -58.68c38.96,-59.43 38.3,-59.73 85.71,-104.12l38.93 -37.04c0.93,-0.79 3.76,-3.04 4.71,-3.82l57.25 -43.59c27.56,-17.05 82.8,-9.86 116.94,-10.36 84.33,-1.23 165.47,-3.06 249.32,-3.96 25.94,-0.28 424.53,2.29 437.5,-2.97 15.83,-6.43 7.77,-19.46 35.58,-31.29 2.39,-10.23 7.29,-16.67 12.59,-26.1l126.68 -223.6c10.21,-16.38 15.31,-37.76 24.57,-52.01l30.83 -49.02c8.36,-21.06 21.69,-31.85 21.17,-55.13l-524.71 11.78c-83.42,8.22 -180.69,-5.43 -264.7,3.04 -60.39,6.09 -198.42,7.86 -263.57,2.62 0.43,-19.13 11.81,-27.31 35.85,-54.18 25.32,-28.29 56.4,-46.57 81.6,-66.48 27.28,-21.55 27.36,-28.56 68.28,-50.55 46.15,-24.8 29.64,-19.22 51.1,-33.18l115.08 -66.3c29.98,-22.81 25.07,-11.55 54.37,-30.13 22.64,-14.35 38.67,-15.04 63.04,-26.57l58.38 -30.32c23.62,-8.33 38.23,-14.7 62.06,-26.23 19.02,-9.2 45.4,-17.17 64.19,-24.89 71.21,-29.25 126.69,-41.63 187.99,-65.85 0.99,-0.39 2.08,-0.84 3.08,-1.22l68.44 -24.33c12.91,-3.58 24.88,-4.22 37.93,-8.87 11.95,-4.26 15.78,-7.86 31.01,-11.13l245.64 -66.89c11.4,-3.97 17.29,-7.58 32.35,-9.88 16.47,-2.51 27.31,-3.46 41.28,-6.16 16.44,-3.17 16.85,-5.91 31.76,-9.72 14.04,-3.58 25.87,-1.79 40.65,-6.21 13.11,-3.91 17.24,-6.3 32.75,-9.48 29.04,-5.95 35.15,-12.66 67.97,-16.47 23.45,-2.72 52.97,-7.47 73.85,-14.46 29.14,-9.76 200.03,-37.23 221.71,-44.06 23.95,-7.55 104.05,-15 151.03,-26.42 29.58,-7.19 131.81,-17.15 144.33,-24.08 7.44,-12.19 0.54,-6.87 18.11,-11.56l43.37 -6.03c78.72,-14.13 217.39,-28.44 303.24,-39.14 39.98,-4.99 79.69,-7.33 122.61,-11.82 42.39,-4.43 83.11,-10.63 126.48,-14.28 22.17,-1.87 43.83,0.49 64.88,-2.58 59.57,-8.7 84.49,-3.2 105.61,-10.51 32.33,-11.19 100.66,-8.37 139.75,-12.76 28.65,-3.22 12.4,-10.86 53.22,-10.05 47.54,0.94 89.72,-1.69 134.91,-6.49 39.37,-4.19 88.39,-3.04 131.85,-4.19 26.53,-0.71 28.35,-7.4 58.66,-7.69 23.08,-0.22 44.72,1.46 67.98,-0.24 41.3,-3.02 86.42,-5.73 126.53,-7.75 65.5,-3.3 58.46,1.35 132.17,-6.82 37.94,-4.21 263.91,-1.13 297.51,-12.1 35.28,-11.51 52.01,0.1 73.48,-4.95 25.16,-5.91 5.01,1.39 16.14,-7.72 -11.69,-9.56 12.13,-1.76 -17.13,-9.03l-58.43 -1.7c-30.07,-0.33 -48.42,-4.17 -75.94,-4.33 -52.49,-0.3 -167.41,6.27 -215.34,-7.69 -26.12,-7.6 -209.38,-9 -231.29,-2.38 -51.93,15.71 -95.24,0.41 -166.21,0.49 -123.36,0.13 -189.44,-1.67 -313.41,8.53 -67.76,5.57 -467.16,3.07 -508.52,14.73 -44.18,12.45 -53,6.19 -107.74,6.99 -114.44,1.66 -256,13.46 -371.66,26.79 -20.51,2.37 -55.86,1.05 -74.33,6.62 -22.21,6.71 -46.21,4.68 -74.01,5.79 -52.45,2.11 -180.84,25.16 -225.16,16.05z"/>
  <path class="fil0" d="M5247.48 1544.39c-3.53,17.55 -9.21,23.57 -21.18,34.92l-52.34 57.04c-12.03,14.69 -14.36,18.87 -38.5,16.21 -22.07,-79.3 5.58,-605.2 -8.6,-624.2 -21.99,-14.42 -144.47,-6.6 -181.71,-6.6 -223.08,0.01 -186.09,-26.98 -186.28,102.63l-0.06 1441.72c-0.02,138.29 -51.2,106.21 270.86,106.34 17.4,0.01 79.23,4.02 87.99,-5.79 9.4,-10.53 4.79,-530.29 4.18,-624.82 -0.08,-11.81 -1.42,-36.54 -0.07,-47.01 1.07,-8.31 0.25,-12.09 7.15,-16.05 19.63,-11.27 20.21,5.28 20.98,6.06l85.16 97.05c7.8,16.41 70.09,75.66 84.8,96.84 14.86,21.41 19.08,17.24 30.98,32.3 10.59,13.4 11.19,21.45 24.33,34.76l119.96 125.5c9.1,7.92 24.01,23.18 30.37,32.09 4.39,6.15 6.24,10.83 11.97,18.03 7.12,8.94 5.94,5.49 13.66,15.89l53.52 65.09c20.02,22.55 36.98,41.43 57.55,65.07l42.96 49.94c85.35,90.92 38.27,78.62 190.82,78.62l367.64 -0.12c24.61,-0.01 98.36,6.38 112.58,-4.39 4.69,-5.64 5.74,8.51 3.04,-9.82 -1.65,-11.17 -58.87,-62.96 -69.33,-73.11l-101.17 -105.91c-21.46,-20.33 -87.39,-87.69 -102.21,-109.67 -19.64,-29.14 -76.09,-67.67 -104.74,-101.77l-255.32 -268.7c-3.06,-3.81 -2.56,-3.52 -5.69,-7.05 -26.68,-30.07 -39.08,-37.5 -44.99,-43.83l-51.9 -53.87c-9.25,-10.15 -17.82,-16.2 -24.05,-26.01 -52.38,-82.55 -110.29,-45.16 -13.95,-144.3l21.67 -29.05c3.83,-3.69 10.91,-8.51 16.38,-13.02 12.94,-10.66 1.15,-2.08 15.1,-10.17 19.27,-11.17 12.11,-11.67 26.33,-24.78 20.2,-18.62 32.48,-32.66 50.88,-50.64l57.92 -68.84c0.56,-0.58 1.51,-1.39 2.1,-1.95 5.65,-5.33 0.61,-0.39 6.85,-5.63 0.67,-0.56 1.66,-1.34 2.33,-1.91l4.63 -3.99c10.68,-9.5 17.02,-15.78 26.08,-24.84l54.77 -51.05c24.14,-21.33 40.92,-45.18 62.06,-68.93l89.07 -92.14c38.09,-30.08 70.26,-68.37 104.4,-103.16l55.84 -58.22c0.58,-0.67 1.37,-1.64 1.97,-2.3l95.05 -99.38c9.35,-10.92 17.41,-14.87 26.19,-24.51 9.39,-10.32 16.79,-15.91 18.32,-32.19 -33.2,-8.2 -162.16,-8.3 -207.12,-8.44 -32.8,-0.1 -64.53,-4.53 -101.28,-4.66l-207.07 -4.8c-55.22,-0.26 -54.29,2.09 -103.98,57.4 -29.12,32.41 -57.12,66.81 -91.58,94.84l-18.51 23.17c-30.87,38.52 -45.92,48.93 -68.7,75.02 -8.29,9.49 -12.87,20.14 -23.56,31.61 -23.95,25.69 -55.7,52.82 -75.97,79.97 -5.23,7.01 -6.24,10.17 -12.39,17.52 -1.5,1.79 -4.66,5.17 -6.26,6.71l-4.57 4.03c-0.67,0.59 -1.65,1.37 -2.32,1.94l-74.27 81.17c-18.49,26.97 -88.63,90.74 -98.74,108.11z"/>
  <path class="fil0" d="M4028.14 1803.7c-29.46,53.28 -245.71,37.58 -300.01,37.67 -129.17,0.21 -985.31,-0.61 -994.77,8.69 -4.95,11.38 -1.37,823.39 4.84,838.66 8.96,11.21 64.74,0.97 94.05,0.86 36.65,-0.14 67.05,-2.18 101.45,-4.15 33.43,-1.91 187.38,-0.72 202.67,-8.91l5.95 -21.33c5.17,-73.39 -9.8,-384.88 3.61,-409.1 11.81,-21.33 67.89,-13.21 108.91,-13.01 41.79,0.21 79.17,1.94 118.14,3.73 80.47,3.69 164.48,1.44 245.28,1.42 118.03,-0.03 240.06,6.49 363.43,4.99 55.19,-0.68 64.85,-16.84 109.84,-22.45 27.61,-0.55 136.28,-62.07 160.77,-85.66 5.14,-4.95 2.56,-2.43 6.4,-6.29 6.12,-6.16 9.17,-9.92 14.84,-14.81 40.3,-34.75 12.4,-1.95 57.68,-56.35l30.52 -32.91c0.55,-0.65 1.35,-1.62 1.88,-2.29 0.54,-0.67 1.32,-1.66 1.83,-2.34l17.55 -25.05c14.35,-16.78 23.34,-48.69 41.28,-77.01l11.64 -17.19c27.28,-60.22 48.58,-131.24 54.82,-197.77 11.53,-122.98 -4.88,-219.48 -50.37,-323.27 -37.16,-84.77 -23.24,-48.19 -55.42,-105.5 -3.21,-5.7 -2.37,-5.72 -4.1,-8.93l-126.42 -130.5 -104.16 -68.76 -82.91 -35.63c-13.07,-4.4 -23.28,-10.39 -43.24,-11.04 -75.01,-2.45 -153,-0.44 -228.38,-0.88l-693.03 -0.67c-68.65,-0.13 -87.93,-10.23 -109.06,34.42l-177.42 300.98c-9.91,15.8 -18.45,28.61 -17.15,49.27 59.44,13.83 155.21,2.45 222.54,9.55 74.97,7.9 364.54,17.99 448.74,17.93l173.32 4.52c21.27,1.04 22.34,6.22 46.2,7.22 76.41,3.19 150.63,4.92 224.07,8.94 42.33,2.32 72.29,-5.07 106.47,11.4 77.44,37.33 46.97,16 93.09,79.99 36.46,50.59 25.36,130.75 -1.93,182.42 -10.09,19.1 -52.52,73.05 -83.43,79.16z"/>
 </g>
</svg>
